<svg width="22" height="22" viewBox="0 0 18 22" fill="none" xmlns="http://www.w3.org/2000/svg">
<path d="M12.75 5C12.75 5.99456 12.3549 6.94839 11.6516 7.65165C10.9484 8.35491 9.99456 8.75 9 8.75C8.00544 8.75 7.05161 8.35491 6.34835 7.65165C5.64509 6.94839 5.25 5.99456 5.25 5C5.25 4.00544 5.64509 3.05161 6.34835 2.34835C7.05161 1.64509 8.00544 1.25 9 1.25C9.99456 1.25 10.9484 1.64509 11.6516 2.34835C12.3549 3.05161 12.75 4.00544 12.75 5ZM1.501 19.118C1.53313 17.1504 2.33734 15.2742 3.74018 13.894C5.14302 12.5139 7.03209 11.7405 9 11.7405C10.9679 11.7405 12.857 12.5139 14.2598 13.894C15.6627 15.2742 16.4669 17.1504 16.499 19.118C14.1464 20.1968 11.5881 20.7535 9 20.75C6.324 20.75 3.784 20.166 1.501 19.118Z" stroke="#6B7280" stroke-width="1.5" stroke-linecap="round" stroke-linejoin="round"/>
</svg>
