<svg width="23" height="20" viewBox="0 0 23 20" fill="none" xmlns="http://www.w3.org/2000/svg">
<path d="M3.659 7.654C3.38395 9.75957 3.22005 11.8782 3.168 14.001C6.0468 15.2035 8.80318 16.6803 11.399 18.411C13.9951 16.6803 16.7519 15.2035 19.631 14.001C19.5789 11.8782 19.415 9.75958 19.14 7.654M19.14 7.654C20.015 7.36 20.902 7.088 21.798 6.84C18.5346 4.55225 15.051 2.59589 11.399 1C7.74699 2.59622 4.2634 4.55292 1 6.841C1.89327 7.08763 2.77961 7.35873 3.658 7.654C6.32662 8.55121 8.9159 9.66907 11.399 10.996C13.8817 9.66906 16.4717 8.5512 19.14 7.654ZM6.149 12.507C6.34791 12.507 6.53868 12.428 6.67933 12.2873C6.81998 12.1467 6.899 11.9559 6.899 11.757C6.899 11.5581 6.81998 11.3673 6.67933 11.2267C6.53868 11.086 6.34791 11.007 6.149 11.007C5.95009 11.007 5.75932 11.086 5.61867 11.2267C5.47802 11.3673 5.399 11.5581 5.399 11.757C5.399 11.9559 5.47802 12.1467 5.61867 12.2873C5.75932 12.428 5.95009 12.507 6.149 12.507ZM6.149 12.507V8.832C7.84573 7.77734 9.5983 6.81526 11.399 5.95M4.392 17.5C4.94997 16.9434 5.39244 16.282 5.69396 15.5539C5.99549 14.8257 6.15013 14.0451 6.149 13.257V11.757" stroke="#6B7280" stroke-width="1.5" stroke-linecap="round" stroke-linejoin="round"/>
</svg>
