<svg width="20" height="20" viewBox="0 0 20 20" fill="none" xmlns="http://www.w3.org/2000/svg">
<path d="M7.59399 1.94C7.68399 1.398 8.15399 1 8.70399 1H11.297C11.847 1 12.317 1.398 12.407 1.94L12.62 3.221C12.683 3.595 12.933 3.907 13.265 4.091C13.339 4.131 13.412 4.174 13.485 4.218C13.81 4.414 14.205 4.475 14.56 4.342L15.777 3.886C16.0264 3.79221 16.301 3.78998 16.5519 3.87971C16.8028 3.96945 17.0136 4.14531 17.147 4.376L18.443 6.623C18.576 6.8537 18.6229 7.12413 18.5753 7.38617C18.5277 7.6482 18.3887 7.88485 18.183 8.054L17.18 8.881C16.887 9.122 16.742 9.494 16.75 9.873C16.7514 9.95799 16.7514 10.043 16.75 10.128C16.742 10.506 16.887 10.878 17.18 11.119L18.184 11.946C18.608 12.296 18.718 12.901 18.444 13.376L17.146 15.623C17.0128 15.8536 16.8022 16.0296 16.5515 16.1195C16.3008 16.2094 16.0264 16.2074 15.777 16.114L14.56 15.658C14.205 15.525 13.81 15.586 13.484 15.782C13.4115 15.8261 13.3382 15.8688 13.264 15.91C12.933 16.093 12.683 16.405 12.62 16.779L12.407 18.06C12.317 18.603 11.847 19 11.297 19H8.70299C8.15299 19 7.68399 18.602 7.59299 18.06L7.37999 16.779C7.31799 16.405 7.06799 16.093 6.73599 15.909C6.66184 15.8681 6.58849 15.8258 6.51599 15.782C6.19099 15.586 5.79599 15.525 5.43999 15.658L4.22299 16.114C3.97372 16.2075 3.69936 16.2096 3.44869 16.1199C3.19803 16.0302 2.9873 15.8545 2.85399 15.624L1.55699 13.377C1.42394 13.1463 1.37704 12.8759 1.42465 12.6138C1.47226 12.3518 1.61128 12.1152 1.81699 11.946L2.82099 11.119C3.11299 10.879 3.25799 10.506 3.25099 10.128C3.24943 10.043 3.24943 9.95799 3.25099 9.873C3.25799 9.493 3.11299 9.122 2.82099 8.881L1.81699 8.054C1.61153 7.88489 1.47267 7.64843 1.42506 7.38662C1.37746 7.12481 1.42421 6.8546 1.55699 6.624L2.85399 4.377C2.98718 4.14614 3.198 3.97006 3.4489 3.88014C3.6998 3.79021 3.97448 3.79229 4.22399 3.886L5.43999 4.342C5.79599 4.475 6.19099 4.414 6.51599 4.218C6.58799 4.174 6.66199 4.132 6.73599 4.09C7.06799 3.907 7.31799 3.595 7.37999 3.221L7.59399 1.94Z" stroke="#6B7280" stroke-width="1.5" stroke-linecap="round" stroke-linejoin="round"/>
<path d="M13 10C13 10.7956 12.6839 11.5587 12.1213 12.1213C11.5587 12.6839 10.7956 13 9.99999 13C9.20434 13 8.44128 12.6839 7.87867 12.1213C7.31606 11.5587 6.99999 10.7956 6.99999 10C6.99999 9.20435 7.31606 8.44129 7.87867 7.87868C8.44128 7.31607 9.20434 7 9.99999 7C10.7956 7 11.5587 7.31607 12.1213 7.87868C12.6839 8.44129 13 9.20435 13 10Z" stroke="#6B7280" stroke-width="1.5" stroke-linecap="round" stroke-linejoin="round"/>
</svg>
